<?xml version="1.0" encoding="UTF-8"?>
<svg version="1.1" xmlns="http://www.w3.org/2000/svg" width="48" height="48">
<path d="M0 0 C2.64 0 5.28 0 8 0 C8 2.64 8 5.28 8 8 C5.36 8 2.72 8 0 8 C0 7.01 0 6.02 0 5 C-0.99 5 -1.98 5 -3 5 C-3 7.64 -3 10.28 -3 13 C-2.01 13 -1.02 13 0 13 C0 12.01 0 11.02 0 10 C2.64 10 5.28 10 8 10 C8 12.64 8 15.28 8 18 C5.36 18 2.72 18 0 18 C0 17.01 0 16.02 0 15 C-1.65 15 -3.3 15 -5 15 C-5 13.35 -5 11.7 -5 10 C-5.99 10 -6.98 10 -8 10 C-8 10.99 -8 11.98 -8 13 C-10.64 13 -13.28 13 -16 13 C-16 12.01 -16 11.02 -16 10 C-16.99 10 -17.98 10 -19 10 C-19 16.6 -19 23.2 -19 30 C-18.01 30 -17.02 30 -16 30 C-16 29.01 -16 28.02 -16 27 C-13.36 27 -10.72 27 -8 27 C-8 27.99 -8 28.98 -8 30 C-7.01 30 -6.02 30 -5 30 C-5 28.35 -5 26.7 -5 25 C-3.35 25 -1.7 25 0 25 C0 24.01 0 23.02 0 22 C2.64 22 5.28 22 8 22 C8 24.64 8 27.28 8 30 C5.36 30 2.72 30 0 30 C0 29.01 0 28.02 0 27 C-0.99 27 -1.98 27 -3 27 C-3 29.64 -3 32.28 -3 35 C-2.01 35 -1.02 35 0 35 C0 34.01 0 33.02 0 32 C2.64 32 5.28 32 8 32 C8 34.64 8 37.28 8 40 C5.36 40 2.72 40 0 40 C0 39.01 0 38.02 0 37 C-1.65 37 -3.3 37 -5 37 C-5 35.35 -5 33.7 -5 32 C-5.99 32 -6.98 32 -8 32 C-8 32.99 -8 33.98 -8 35 C-10.64 35 -13.28 35 -16 35 C-16 34.01 -16 33.02 -16 32 C-17.65 32 -19.3 32 -21 32 C-21 28.37 -21 24.74 -21 21 C-21.99 21 -22.98 21 -24 21 C-24 21.99 -24 22.98 -24 24 C-26.64 24 -29.28 24 -32 24 C-32 21.36 -32 18.72 -32 16 C-29.36 16 -26.72 16 -24 16 C-24 16.99 -24 17.98 -24 19 C-23.01 19 -22.02 19 -21 19 C-21 15.37 -21 11.74 -21 8 C-19.35 8 -17.7 8 -16 8 C-16 7.01 -16 6.02 -16 5 C-13.36 5 -10.72 5 -8 5 C-8 5.99 -8 6.98 -8 8 C-7.01 8 -6.02 8 -5 8 C-5 6.35 -5 4.7 -5 3 C-3.35 3 -1.7 3 0 3 C0 2.01 0 1.02 0 0 Z " fill="#3F51B5" transform="translate(36,4)"/>
<path d="M0 0 C2.64 0 5.28 0 8 0 C8 2.64 8 5.28 8 8 C5.36 8 2.72 8 0 8 C0 7.01 0 6.02 0 5 C-0.99 5 -1.98 5 -3 5 C-3 7.64 -3 10.28 -3 13 C-2.01 13 -1.02 13 0 13 C0 12.01 0 11.02 0 10 C2.64 10 5.28 10 8 10 C8 12.64 8 15.28 8 18 C5.36 18 2.72 18 0 18 C0 17.01 0 16.02 0 15 C-1.65 15 -3.3 15 -5 15 C-5 13.35 -5 11.7 -5 10 C-5.99 10 -6.98 10 -8 10 C-8 10.99 -8 11.98 -8 13 C-10.64 13 -13.28 13 -16 13 C-16 10.36 -16 7.72 -16 5 C-13.36 5 -10.72 5 -8 5 C-8 5.99 -8 6.98 -8 8 C-7.01 8 -6.02 8 -5 8 C-5 6.35 -5 4.7 -5 3 C-3.35 3 -1.7 3 0 3 C0 2.01 0 1.02 0 0 Z " fill="#3F51B5" transform="translate(36,26)"/>
<path d="M0 0 C1.65 0 3.3 0 5 0 C5 0.66 5 1.32 5 2 C4.01 2 3.02 2 2 2 C2 8.6 2 15.2 2 22 C2.99 22 3.98 22 5 22 C5 22.66 5 23.32 5 24 C3.35 24 1.7 24 0 24 C0 20.37 0 16.74 0 13 C-0.99 13 -1.98 13 -3 13 C-3 13.99 -3 14.98 -3 16 C-5.64 16 -8.28 16 -11 16 C-11 13.36 -11 10.72 -11 8 C-8.36 8 -5.72 8 -3 8 C-3 8.99 -3 9.98 -3 11 C-2.01 11 -1.02 11 0 11 C0 7.37 0 3.74 0 0 Z " fill="#CFD8DC" transform="translate(15,12)"/>
<path d="M0 0 C2.64 0 5.28 0 8 0 C8 2.64 8 5.28 8 8 C5.36 8 2.72 8 0 8 C0 5.36 0 2.72 0 0 Z " fill="#3F51B5" transform="translate(36,36)"/>
<path d="M0 0 C2.64 0 5.28 0 8 0 C8 2.64 8 5.28 8 8 C5.36 8 2.72 8 0 8 C0 5.36 0 2.72 0 0 Z " fill="#3F51B5" transform="translate(20,31)"/>
<path d="M0 0 C2.64 0 5.28 0 8 0 C8 2.64 8 5.28 8 8 C5.36 8 2.72 8 0 8 C0 5.36 0 2.72 0 0 Z " fill="#00BCD4" transform="translate(4,20)"/>
<path d="M0 0 C2.64 0 5.28 0 8 0 C8 2.64 8 5.28 8 8 C5.36 8 2.72 8 0 8 C0 5.36 0 2.72 0 0 Z " fill="#3F51B5" transform="translate(36,14)"/>
<path d="M0 0 C2.64 0 5.28 0 8 0 C8 2.64 8 5.28 8 8 C5.36 8 2.72 8 0 8 C0 5.36 0 2.72 0 0 Z " fill="#3F51B5" transform="translate(20,9)"/>
<path d="M0 0 C1.65 0 3.3 0 5 0 C5 0.66 5 1.32 5 2 C4.01 2 3.02 2 2 2 C2 4.64 2 7.28 2 10 C2.99 10 3.98 10 5 10 C5 10.66 5 11.32 5 12 C3.35 12 1.7 12 0 12 C0 10.35 0 8.7 0 7 C-0.99 7 -1.98 7 -3 7 C-3 6.34 -3 5.68 -3 5 C-2.01 5 -1.02 5 0 5 C0 3.35 0 1.7 0 0 Z " fill="#CFD8DC" transform="translate(31,29)"/>
<path d="M0 0 C1.65 0 3.3 0 5 0 C5 0.66 5 1.32 5 2 C4.01 2 3.02 2 2 2 C2 4.64 2 7.28 2 10 C2.99 10 3.98 10 5 10 C5 10.66 5 11.32 5 12 C3.35 12 1.7 12 0 12 C0 10.35 0 8.7 0 7 C-0.99 7 -1.98 7 -3 7 C-3 6.34 -3 5.68 -3 5 C-2.01 5 -1.02 5 0 5 C0 3.35 0 1.7 0 0 Z " fill="#CFD8DC" transform="translate(31,7)"/>
</svg>
